<?xml version="1.0" encoding="UTF-8" standalone="no"?>
<!DOCTYPE svg PUBLIC "-//W3C//DTD SVG 1.1//EN" "http://www.w3.org/Graphics/SVG/1.1/DTD/svg11.dtd">
<svg width="100%" height="100%" viewBox="0 0 1367 296" version="1.1" xmlns="http://www.w3.org/2000/svg" xmlns:xlink="http://www.w3.org/1999/xlink" xml:space="preserve" xmlns:serif="http://www.serif.com/" style="fill-rule:evenodd;clip-rule:evenodd;stroke-linejoin:round;stroke-miterlimit:2;">
    <g transform="matrix(1,0,0,1,0,-452.57205)">
        <g id="bodinode-logo" transform="matrix(1.366563,0,0,0.295544,1434.891026,452.57205)">
            <rect x="-1050" y="0" width="1000" height="1000" style="fill:none;"/>
            <clipPath id="_clip1">
                <rect x="-1050" y="0" width="1000" height="1000"/>
            </clipPath>
            <g clip-path="url(#_clip1)">
                <g transform="matrix(4.126151,0,0,19.07887,-5786.761576,-10989.36621)">
                    <g transform="matrix(1,0,0,1,783.546606,-69.660552)">
                        <path d="M373.517,673.721C374.317,672.421 375.467,671.371 376.967,670.571C378.467,669.771 380.184,669.371 382.117,669.371C384.417,669.371 386.501,669.955 388.367,671.121C390.234,672.288 391.709,673.955 392.792,676.121C393.876,678.288 394.417,680.805 394.417,683.671C394.417,686.538 393.876,689.063 392.792,691.246C391.709,693.43 390.234,695.113 388.367,696.296C386.501,697.48 384.417,698.071 382.117,698.071C380.151,698.071 378.434,697.68 376.967,696.896C375.501,696.113 374.351,695.071 373.517,693.771L373.517,697.671L364.967,697.671L364.967,645.657L373.517,645.657L373.517,673.721ZM385.717,683.671C385.717,681.538 385.126,679.863 383.942,678.646C382.759,677.43 381.301,676.821 379.567,676.821C377.867,676.821 376.426,677.438 375.242,678.671C374.059,679.905 373.467,681.588 373.467,683.721C373.467,685.855 374.059,687.538 375.242,688.771C376.426,690.005 377.867,690.621 379.567,690.621C381.267,690.621 382.717,689.996 383.917,688.746C385.117,687.496 385.717,685.805 385.717,683.671Z" style="fill-rule:nonzero;"/>
                    </g>
                    <g transform="matrix(1,0,0,1,783.753749,-69.660552)">
                        <path d="M411.617,698.071C408.884,698.071 406.426,697.488 404.242,696.321C402.059,695.155 400.342,693.488 399.092,691.321C397.842,689.155 397.217,686.621 397.217,683.721C397.217,680.855 397.851,678.33 399.117,676.146C400.384,673.963 402.117,672.288 404.317,671.121C406.517,669.955 408.984,669.371 411.717,669.371C414.451,669.371 416.917,669.955 419.117,671.121C421.317,672.288 423.051,673.963 424.317,676.146C425.584,678.33 426.217,680.855 426.217,683.721C426.217,686.588 425.576,689.113 424.292,691.296C423.009,693.48 421.259,695.155 419.042,696.321C416.826,697.488 414.351,698.071 411.617,698.071ZM411.617,690.671C413.251,690.671 414.642,690.071 415.792,688.871C416.942,687.671 417.517,685.955 417.517,683.721C417.517,681.488 416.959,679.771 415.842,678.571C414.726,677.371 413.351,676.771 411.717,676.771C410.051,676.771 408.667,677.363 407.567,678.546C406.467,679.73 405.917,681.455 405.917,683.721C405.917,685.955 406.459,687.671 407.542,688.871C408.626,690.071 409.984,690.671 411.617,690.671Z" style="fill-rule:nonzero;"/>
                    </g>
                    <g transform="matrix(1,0,0,1,784.910892,-69.660552)">
                        <path d="M429.067,683.671C429.067,680.805 429.609,678.288 430.692,676.121C431.776,673.955 433.251,672.288 435.117,671.121C436.984,669.955 439.067,669.371 441.367,669.371C443.201,669.371 444.876,669.755 446.392,670.521C447.909,671.288 449.101,672.321 449.967,673.621L449.967,645.657L458.517,645.657L458.517,697.671L449.967,697.671L449.967,693.671C449.167,695.005 448.026,696.071 446.542,696.871C445.059,697.671 443.334,698.071 441.367,698.071C439.067,698.071 436.984,697.48 435.117,696.296C433.251,695.113 431.776,693.43 430.692,691.246C429.609,689.063 429.067,686.538 429.067,683.671ZM449.967,683.721C449.967,681.588 449.376,679.905 448.192,678.671C447.009,677.438 445.567,676.821 443.867,676.821C442.167,676.821 440.726,677.43 439.542,678.646C438.359,679.863 437.767,681.538 437.767,683.671C437.767,685.805 438.359,687.496 439.542,688.746C440.726,689.996 442.167,690.621 443.867,690.621C445.567,690.621 447.009,690.005 448.192,688.771C449.376,687.538 449.967,685.855 449.967,683.721Z" style="fill-rule:nonzero;"/>
                    </g>
                    <g transform="matrix(1,0,0,1,784.518035,-69.660552)">
                        <path d="M469.017,666.871C467.517,666.871 466.292,666.43 465.342,665.546C464.392,664.663 463.917,663.571 463.917,662.271C463.917,660.938 464.392,659.83 465.342,658.946C466.292,658.063 467.517,657.621 469.017,657.621C470.484,657.621 471.692,658.063 472.642,658.946C473.592,659.83 474.067,660.938 474.067,662.271C474.067,663.571 473.592,664.663 472.642,665.546C471.692,666.43 470.484,666.871 469.017,666.871ZM473.267,669.771L473.267,697.671L464.717,697.671L464.717,669.771L473.267,669.771Z" style="fill-rule:nonzero;"/>
                    </g>
                    <g transform="matrix(1,0,0,1,784.125178,-69.660552)">
                        <path d="M496.467,669.471C499.734,669.471 502.342,670.53 504.292,672.646C506.242,674.763 507.217,677.671 507.217,681.371L507.217,697.671L498.717,697.671L498.717,682.521C498.717,680.655 498.234,679.205 497.267,678.171C496.301,677.138 495.001,676.621 493.367,676.621C491.734,676.621 490.434,677.138 489.467,678.171C488.501,679.205 488.017,680.655 488.017,682.521L488.017,697.671L479.467,697.671L479.467,669.777L488.017,669.777L488.017,673.471C488.017,673.471 490.051,671.263 491.517,670.546C492.984,669.83 494.634,669.471 496.467,669.471Z" style="fill-rule:nonzero;"/>
                    </g>
                    <g transform="matrix(1,0,0,1,783.88232,-69.660552)">
                        <path d="M525.867,698.071C523.134,698.071 520.676,697.488 518.492,696.321C516.309,695.155 514.592,693.488 513.342,691.321C512.092,689.155 511.467,686.621 511.467,683.721C511.467,680.855 512.101,678.33 513.367,676.146C514.634,673.963 516.367,672.288 518.567,671.121C520.767,669.955 523.234,669.371 525.967,669.371C528.701,669.371 531.167,669.955 533.367,671.121C535.567,672.288 537.301,673.963 538.567,676.146C539.834,678.33 540.467,680.855 540.467,683.721C540.467,686.588 539.826,689.113 538.542,691.296C537.259,693.48 535.509,695.155 533.292,696.321C531.076,697.488 528.601,698.071 525.867,698.071ZM525.867,690.671C527.501,690.671 528.892,690.071 530.042,688.871C531.192,687.671 531.767,685.955 531.767,683.721C531.767,681.488 531.209,679.771 530.092,678.571C528.976,677.371 527.601,676.771 525.967,676.771C524.301,676.771 522.917,677.363 521.817,678.546C520.717,679.73 520.167,681.455 520.167,683.721C520.167,685.955 520.709,687.671 521.792,688.871C522.876,690.071 524.234,690.671 525.867,690.671Z" style="fill-rule:nonzero;"/>
                    </g>
                    <g transform="matrix(1,0,0,1,784.039463,-69.660552)">
                        <path d="M543.317,683.671C543.317,680.805 543.859,678.288 544.942,676.121C546.026,673.955 547.501,672.288 549.367,671.121C551.234,669.955 553.317,669.371 555.617,669.371C557.451,669.371 559.126,669.755 560.642,670.521C562.159,671.288 563.351,672.321 564.217,673.621L564.217,645.657L572.767,645.657L572.767,697.671L564.217,697.671L564.217,693.671C563.417,695.005 562.276,696.071 560.792,696.871C559.309,697.671 557.584,698.071 555.617,698.071C553.317,698.071 551.234,697.48 549.367,696.296C547.501,695.113 546.026,693.43 544.942,691.246C543.859,689.063 543.317,686.538 543.317,683.671ZM564.217,683.721C564.217,681.588 563.626,679.905 562.442,678.671C561.259,677.438 559.817,676.821 558.117,676.821C556.417,676.821 554.976,677.43 553.792,678.646C552.609,679.863 552.017,681.538 552.017,683.671C552.017,685.805 552.609,687.496 553.792,688.746C554.976,689.996 556.417,690.621 558.117,690.621C559.817,690.621 561.259,690.005 562.442,688.771C563.626,687.538 564.217,685.855 564.217,683.721Z" style="fill-rule:nonzero;"/>
                    </g>
                    <g transform="matrix(1,0,0,1,784.546606,-69.660552)">
                        <path d="M605.267,683.271C605.267,684.071 605.217,684.905 605.117,685.771L585.767,685.771C585.901,687.505 586.459,688.83 587.442,689.746C588.426,690.663 589.634,691.121 591.067,691.121C593.201,691.121 594.684,690.221 595.517,688.421L604.617,688.421C604.151,690.255 603.309,691.905 602.092,693.371C600.876,694.838 599.351,695.988 597.517,696.821C595.684,697.655 593.634,698.071 591.367,698.071C588.634,698.071 586.201,697.488 584.067,696.321C581.934,695.155 580.267,693.488 579.067,691.321C577.867,689.155 577.267,686.621 577.267,683.721C577.267,680.821 577.859,678.288 579.042,676.121C580.226,673.955 581.884,672.288 584.017,671.121C586.151,669.955 588.601,669.371 591.367,669.371C594.067,669.371 596.467,669.938 598.567,671.071C600.667,672.205 602.309,673.821 603.492,675.921C604.676,678.021 605.267,680.471 605.267,683.271ZM596.517,681.021C596.517,679.555 596.017,678.388 595.017,677.521C594.017,676.655 592.767,676.221 591.267,676.221C589.834,676.221 588.626,676.638 587.642,677.471C586.659,678.305 586.051,679.488 585.817,681.021L596.517,681.021Z" style="fill-rule:nonzero;"/>
                    </g>
                </g>
            </g>
        </g>
    </g>
</svg>
