<svg width="52" height="52" viewBox="0 0 52 52" fill="none" xmlns="http://www.w3.org/2000/svg">
<path d="M8.66675 19.5C8.66675 13.3717 8.66675 10.3076 10.5706 8.40381C12.4744 6.5 15.5385 6.5 21.6667 6.5H30.3334C36.4617 6.5 39.5258 6.5 41.4296 8.40381C43.3334 10.3076 43.3334 13.3717 43.3334 19.5V34.2932C43.3334 40.1069 43.3334 43.0138 41.5041 43.9029C39.6748 44.792 37.3891 42.9961 32.8176 39.4042L31.3545 38.2547C28.7841 36.235 27.4988 35.2252 26.0001 35.2252C24.5013 35.2252 23.2161 36.235 20.6456 38.2547L19.1826 39.4042C14.6111 42.9961 12.3254 44.792 10.4961 43.9029C8.66675 43.0138 8.66675 40.1069 8.66675 34.2932V19.5Z" stroke="#221B1B" stroke-width="5"/>
</svg>
