<?xml version="1.0" encoding="UTF-8" standalone="no"?>
<!DOCTYPE svg PUBLIC "-//W3C//DTD SVG 1.1//EN" "http://www.w3.org/Graphics/SVG/1.1/DTD/svg11.dtd">
<svg width="100%" height="100%" viewBox="0 0 1683 282" version="1.1" xmlns="http://www.w3.org/2000/svg" xmlns:xlink="http://www.w3.org/1999/xlink" xml:space="preserve" xmlns:serif="http://www.serif.com/" style="fill-rule:evenodd;clip-rule:evenodd;stroke-linecap:round;stroke-linejoin:round;stroke-miterlimit:1.5;">
    <g transform="matrix(1,0,0,1,-498.503126,-1317.333845)">
        <g id="Artboard2" transform="matrix(0.876991,0,0,0.481078,151.713535,747.767645)">
            <rect x="395.431" y="1183.937" width="1918.117" height="585.785" style="fill:none;"/>
            <g transform="matrix(8.077535,0,0,14.725106,-7657.298609,-18968.350252)">
                <path d="M1002.987,1384.964C1003.92,1383.331 1005.287,1381.998 1007.087,1380.964C1008.887,1379.931 1010.937,1379.414 1013.237,1379.414C1015.703,1379.414 1017.92,1379.998 1019.887,1381.164C1021.853,1382.331 1023.403,1383.973 1024.537,1386.089C1025.67,1388.206 1026.237,1390.664 1026.237,1393.464C1026.237,1396.231 1025.67,1398.698 1024.537,1400.864C1023.403,1403.031 1021.845,1404.714 1019.862,1405.914C1017.878,1407.114 1015.67,1407.714 1013.237,1407.714C1010.87,1407.714 1008.795,1407.198 1007.012,1406.164C1005.228,1405.131 1003.887,1403.814 1002.987,1402.214L1002.987,1407.264L998.437,1407.264L998.437,1370.264L1002.987,1370.264L1002.987,1384.964ZM1021.587,1393.464C1021.587,1391.398 1021.17,1389.598 1020.337,1388.064C1019.503,1386.531 1018.378,1385.364 1016.962,1384.564C1015.545,1383.764 1013.987,1383.364 1012.287,1383.364C1010.62,1383.364 1009.078,1383.773 1007.662,1384.589C1006.245,1385.406 1005.112,1386.589 1004.262,1388.139C1003.412,1389.689 1002.987,1391.481 1002.987,1393.514C1002.987,1395.581 1003.412,1397.389 1004.262,1398.939C1005.112,1400.489 1006.245,1401.673 1007.662,1402.489C1009.078,1403.306 1010.62,1403.714 1012.287,1403.714C1013.987,1403.714 1015.545,1403.306 1016.962,1402.489C1018.378,1401.673 1019.503,1400.489 1020.337,1398.939C1021.17,1397.389 1021.587,1395.564 1021.587,1393.464Z" style="fill-rule:nonzero;"/>
            </g>
            <g transform="matrix(8.077535,0,0,14.725106,-7657.298609,-18968.350252)">
                <path d="M1044.187,1407.714C1041.62,1407.714 1039.295,1407.131 1037.212,1405.964C1035.128,1404.798 1033.495,1403.139 1032.312,1400.989C1031.128,1398.839 1030.537,1396.348 1030.537,1393.514C1030.537,1390.714 1031.145,1388.239 1032.362,1386.089C1033.578,1383.939 1035.237,1382.289 1037.337,1381.139C1039.437,1379.989 1041.787,1379.414 1044.387,1379.414C1046.987,1379.414 1049.337,1379.989 1051.437,1381.139C1053.537,1382.289 1055.195,1383.931 1056.412,1386.064C1057.628,1388.198 1058.237,1390.681 1058.237,1393.514C1058.237,1396.348 1057.612,1398.839 1056.362,1400.989C1055.112,1403.139 1053.42,1404.798 1051.287,1405.964C1049.153,1407.131 1046.787,1407.714 1044.187,1407.714ZM1044.187,1403.714C1045.82,1403.714 1047.353,1403.331 1048.787,1402.564C1050.22,1401.798 1051.378,1400.648 1052.262,1399.114C1053.145,1397.581 1053.587,1395.714 1053.587,1393.514C1053.587,1391.314 1053.153,1389.448 1052.287,1387.914C1051.42,1386.381 1050.287,1385.239 1048.887,1384.489C1047.487,1383.739 1045.97,1383.364 1044.337,1383.364C1042.67,1383.364 1041.145,1383.739 1039.762,1384.489C1038.378,1385.239 1037.27,1386.381 1036.437,1387.914C1035.603,1389.448 1035.187,1391.314 1035.187,1393.514C1035.187,1395.748 1035.595,1397.631 1036.412,1399.164C1037.228,1400.698 1038.32,1401.839 1039.687,1402.589C1041.053,1403.339 1042.553,1403.714 1044.187,1403.714Z" style="fill-rule:nonzero;"/>
            </g>
            <g transform="matrix(8.077535,0,0,14.725106,-7657.298609,-18968.350252)">
                <path d="M1062.537,1393.464C1062.537,1390.664 1063.103,1388.206 1064.237,1386.089C1065.37,1383.973 1066.928,1382.331 1068.912,1381.164C1070.895,1379.998 1073.12,1379.414 1075.587,1379.414C1077.72,1379.414 1079.703,1379.906 1081.537,1380.889C1083.37,1381.873 1084.77,1383.164 1085.737,1384.764L1085.737,1370.264L1090.337,1370.264L1090.337,1407.264L1085.737,1407.264L1085.737,1402.114C1084.837,1403.748 1083.503,1405.089 1081.737,1406.139C1079.97,1407.189 1077.903,1407.714 1075.537,1407.714C1073.103,1407.714 1070.895,1407.114 1068.912,1405.914C1066.928,1404.714 1065.37,1403.031 1064.237,1400.864C1063.103,1398.698 1062.537,1396.231 1062.537,1393.464ZM1085.737,1393.514C1085.737,1391.448 1085.32,1389.648 1084.487,1388.114C1083.653,1386.581 1082.528,1385.406 1081.112,1384.589C1079.695,1383.773 1078.137,1383.364 1076.437,1383.364C1074.737,1383.364 1073.187,1383.764 1071.787,1384.564C1070.387,1385.364 1069.27,1386.531 1068.437,1388.064C1067.603,1389.598 1067.187,1391.398 1067.187,1393.464C1067.187,1395.564 1067.603,1397.389 1068.437,1398.939C1069.27,1400.489 1070.387,1401.673 1071.787,1402.489C1073.187,1403.306 1074.737,1403.714 1076.437,1403.714C1078.137,1403.714 1079.695,1403.306 1081.112,1402.489C1082.528,1401.673 1083.653,1400.489 1084.487,1398.939C1085.32,1397.389 1085.737,1395.581 1085.737,1393.514Z" style="fill-rule:nonzero;"/>
            </g>
            <g transform="matrix(8.077535,0,0,14.725106,-7657.298609,-18968.350252)">
                <path d="M1100.387,1375.414C1099.52,1375.414 1098.787,1375.114 1098.187,1374.514C1097.587,1373.914 1097.287,1373.181 1097.287,1372.314C1097.287,1371.448 1097.587,1370.714 1098.187,1370.114C1098.787,1369.514 1099.52,1369.214 1100.387,1369.214C1101.22,1369.214 1101.928,1369.514 1102.512,1370.114C1103.095,1370.714 1103.387,1371.448 1103.387,1372.314C1103.387,1373.181 1103.095,1373.914 1102.512,1374.514C1101.928,1375.114 1101.22,1375.414 1100.387,1375.414ZM1102.587,1379.864L1102.587,1407.264L1098.037,1407.264L1098.037,1379.864L1102.587,1379.864Z" style="fill-rule:nonzero;"/>
            </g>
            <g transform="matrix(8.077535,0,0,14.725106,-7657.298609,-18968.350252)">
                <path d="M1123.687,1379.364C1127.02,1379.364 1129.72,1380.373 1131.787,1382.389C1133.853,1384.406 1134.887,1387.314 1134.887,1391.114L1134.887,1407.264L1130.387,1407.264L1130.387,1391.764C1130.387,1389.031 1129.703,1386.939 1128.337,1385.489C1126.97,1384.039 1125.103,1383.314 1122.737,1383.314C1120.337,1383.314 1118.428,1384.064 1117.012,1385.564C1115.595,1387.064 1114.887,1389.248 1114.887,1392.114L1114.887,1407.264L1110.337,1407.264L1110.337,1379.864L1114.887,1379.864L1114.887,1383.764C1115.787,1382.364 1117.012,1381.281 1118.562,1380.514C1120.112,1379.748 1121.82,1379.364 1123.687,1379.364Z" style="fill-rule:nonzero;"/>
            </g>
            <g transform="matrix(8.077535,0,0,14.725106,-7657.298609,-18968.350252)">
                <path d="M1154.287,1407.714C1151.72,1407.714 1149.395,1407.131 1147.312,1405.964C1145.228,1404.798 1143.595,1403.139 1142.412,1400.989C1141.228,1398.839 1140.637,1396.348 1140.637,1393.514C1140.637,1390.714 1141.245,1388.239 1142.462,1386.089C1143.678,1383.939 1145.337,1382.289 1147.437,1381.139C1149.537,1379.989 1151.887,1379.414 1154.487,1379.414C1157.087,1379.414 1159.437,1379.989 1161.537,1381.139C1163.637,1382.289 1165.295,1383.931 1166.512,1386.064C1167.728,1388.198 1168.337,1390.681 1168.337,1393.514C1168.337,1396.348 1167.712,1398.839 1166.462,1400.989C1165.212,1403.139 1163.52,1404.798 1161.387,1405.964C1159.253,1407.131 1156.887,1407.714 1154.287,1407.714ZM1154.287,1403.714C1155.92,1403.714 1157.453,1403.331 1158.887,1402.564C1160.32,1401.798 1161.478,1400.648 1162.362,1399.114C1163.245,1397.581 1163.687,1395.714 1163.687,1393.514C1163.687,1391.314 1163.253,1389.448 1162.387,1387.914C1161.52,1386.381 1160.387,1385.239 1158.987,1384.489C1157.587,1383.739 1156.07,1383.364 1154.437,1383.364C1152.77,1383.364 1151.245,1383.739 1149.862,1384.489C1148.478,1385.239 1147.37,1386.381 1146.537,1387.914C1145.703,1389.448 1145.287,1391.314 1145.287,1393.514C1145.287,1395.748 1145.695,1397.631 1146.512,1399.164C1147.328,1400.698 1148.42,1401.839 1149.787,1402.589C1151.153,1403.339 1152.653,1403.714 1154.287,1403.714Z" style="fill-rule:nonzero;"/>
            </g>
            <g transform="matrix(1.029367,0,0,1.876505,2.036453,-1119.641452)">
                <path d="M1616.972,1503.594C1604.155,1503.594 1592.384,1500.651 1581.66,1494.766C1570.936,1488.881 1562.369,1479.922 1555.961,1467.89C1549.552,1455.858 1546.348,1441.079 1546.348,1423.554C1546.348,1406.29 1549.618,1391.642 1556.157,1379.61C1562.696,1367.578 1571.393,1358.619 1582.248,1352.734C1593.104,1346.848 1605.07,1343.906 1618.149,1343.906C1630.966,1343.906 1642.867,1346.848 1653.853,1352.734C1664.839,1358.619 1673.733,1367.578 1680.533,1379.61C1687.334,1391.642 1690.735,1406.29 1690.735,1423.554C1690.735,1440.817 1687.269,1455.465 1680.337,1467.497C1673.406,1479.53 1664.316,1488.554 1653.068,1494.57C1641.821,1500.586 1629.789,1503.594 1616.972,1503.594Z" style="fill:rgb(238,203,188);"/>
            </g>
            <g transform="matrix(1.029367,0,0,1.876505,-887.300183,-1119.641452)">
                <path d="M1616.972,1503.594C1604.155,1503.594 1592.384,1500.651 1581.66,1494.766C1570.936,1488.881 1562.369,1479.922 1555.961,1467.89C1549.552,1455.858 1546.348,1441.079 1546.348,1423.554C1546.348,1406.29 1549.618,1391.642 1556.157,1379.61C1562.696,1367.578 1571.393,1358.619 1582.248,1352.734C1593.104,1346.848 1605.07,1343.906 1618.149,1343.906C1630.966,1343.906 1642.867,1346.848 1653.853,1352.734C1664.839,1358.619 1673.733,1367.578 1680.533,1379.61C1687.334,1391.642 1690.735,1406.29 1690.735,1423.554C1690.735,1440.817 1687.269,1455.465 1680.337,1467.497C1673.406,1479.53 1664.316,1488.554 1653.068,1494.57C1641.821,1500.586 1629.789,1503.594 1616.972,1503.594Z" style="fill:rgb(188,191,238);"/>
            </g>
            <g transform="matrix(8.077535,0,0,14.725106,-7657.298609,-18968.350252)">
                <path d="M1172.637,1393.464C1172.637,1390.664 1173.203,1388.206 1174.337,1386.089C1175.47,1383.973 1177.028,1382.331 1179.012,1381.164C1180.995,1379.998 1183.22,1379.414 1185.687,1379.414C1187.82,1379.414 1189.803,1379.906 1191.637,1380.889C1193.47,1381.873 1194.87,1383.164 1195.837,1384.764L1195.837,1370.264L1200.437,1370.264L1200.437,1407.264L1195.837,1407.264L1195.837,1402.114C1194.937,1403.748 1193.603,1405.089 1191.837,1406.139C1190.07,1407.189 1188.003,1407.714 1185.637,1407.714C1183.203,1407.714 1180.995,1407.114 1179.012,1405.914C1177.028,1404.714 1175.47,1403.031 1174.337,1400.864C1173.203,1398.698 1172.637,1396.231 1172.637,1393.464ZM1195.837,1393.514C1195.837,1391.448 1195.42,1389.648 1194.587,1388.114C1193.753,1386.581 1192.628,1385.406 1191.212,1384.589C1189.795,1383.773 1188.237,1383.364 1186.537,1383.364C1184.837,1383.364 1183.287,1383.764 1181.887,1384.564C1180.487,1385.364 1179.37,1386.531 1178.537,1388.064C1177.703,1389.598 1177.287,1391.398 1177.287,1393.464C1177.287,1395.564 1177.703,1397.389 1178.537,1398.939C1179.37,1400.489 1180.487,1401.673 1181.887,1402.489C1183.287,1403.306 1184.837,1403.714 1186.537,1403.714C1188.237,1403.714 1189.795,1403.306 1191.212,1402.489C1192.628,1401.673 1193.753,1400.489 1194.587,1398.939C1195.42,1397.389 1195.837,1395.581 1195.837,1393.514Z" style="fill-rule:nonzero;"/>
            </g>
            <g transform="matrix(8.077535,0,0,14.725106,-7657.298609,-18968.350252)">
                <path d="M1233.137,1392.514C1233.137,1393.381 1233.087,1394.298 1232.987,1395.264L1211.087,1395.264C1211.253,1397.964 1212.178,1400.073 1213.862,1401.589C1215.545,1403.106 1217.587,1403.864 1219.987,1403.864C1221.953,1403.864 1223.595,1403.406 1224.912,1402.489C1226.228,1401.573 1227.153,1400.348 1227.687,1398.814L1232.587,1398.814C1231.853,1401.448 1230.387,1403.589 1228.187,1405.239C1225.987,1406.889 1223.253,1407.714 1219.987,1407.714C1217.387,1407.714 1215.062,1407.131 1213.012,1405.964C1210.962,1404.798 1209.353,1403.139 1208.187,1400.989C1207.02,1398.839 1206.437,1396.348 1206.437,1393.514C1206.437,1390.681 1207.003,1388.198 1208.137,1386.064C1209.27,1383.931 1210.862,1382.289 1212.912,1381.139C1214.962,1379.989 1217.32,1379.414 1219.987,1379.414C1222.587,1379.414 1224.887,1379.981 1226.887,1381.114C1228.887,1382.248 1230.428,1383.806 1231.512,1385.789C1232.595,1387.773 1233.137,1390.014 1233.137,1392.514ZM1228.437,1391.564C1228.437,1389.831 1228.053,1388.339 1227.287,1387.089C1226.52,1385.839 1225.478,1384.889 1224.162,1384.239C1222.845,1383.589 1221.387,1383.264 1219.787,1383.264C1217.487,1383.264 1215.528,1383.998 1213.912,1385.464C1212.295,1386.931 1211.37,1388.964 1211.137,1391.564L1228.437,1391.564Z" style="fill-rule:nonzero;"/>
            </g>
            <g transform="matrix(1.073213,0,0,1.956435,-361.210315,-1814.676326)">
                <path d="M1373.435,1720.65C1373.435,1736.205 1370.299,1749.815 1364.027,1761.481C1357.755,1773.147 1349.288,1782.054 1338.625,1788.2C1327.963,1794.347 1316.234,1797.42 1303.439,1797.42C1290.644,1797.42 1278.978,1794.347 1268.441,1788.2C1257.904,1782.054 1249.499,1773.147 1243.227,1761.481C1236.955,1749.815 1233.819,1736.079 1233.819,1720.274C1233.819,1704.719 1236.955,1691.171 1243.227,1679.63C1249.499,1668.09 1257.904,1659.309 1268.441,1653.288C1278.978,1647.267 1290.644,1644.256 1303.439,1644.256C1316.234,1644.256 1327.963,1647.329 1338.625,1653.476C1349.288,1659.623 1357.755,1668.466 1364.027,1680.007C1370.299,1691.547 1373.435,1705.095 1373.435,1720.65Z" style="fill:rgb(232,238,188);"/>
            </g>
            <g transform="matrix(1.073213,0,0,1.956435,527.924383,-1814.676326)">
                <path d="M1373.435,1720.65C1373.435,1736.205 1370.299,1749.815 1364.027,1761.481C1357.755,1773.147 1349.288,1782.054 1338.625,1788.2C1327.963,1794.347 1316.234,1797.42 1303.439,1797.42C1290.644,1797.42 1278.978,1794.347 1268.441,1788.2C1257.904,1782.054 1249.499,1773.147 1243.227,1761.481C1236.955,1749.815 1233.819,1736.079 1233.819,1720.274C1233.819,1704.719 1236.955,1691.171 1243.227,1679.63C1249.499,1668.09 1257.904,1659.309 1268.441,1653.288C1278.978,1647.267 1290.644,1644.256 1303.439,1644.256C1316.234,1644.256 1327.963,1647.329 1338.625,1653.476C1349.288,1659.623 1357.755,1668.466 1364.027,1680.007C1370.299,1691.547 1373.435,1705.095 1373.435,1720.65Z" style="fill:rgb(188,238,228);"/>
            </g>
            <g transform="matrix(1.140262,0,0,2.078664,-172.993225,-1554.357817)">
                <ellipse cx="823.052" cy="1482.266" rx="14.407" ry="23.184" style="fill:white;"/>
            </g>
            <g transform="matrix(-1.138418,-0.118181,-0.064829,2.075302,1843.300233,-1452.105219)">
                <ellipse cx="823.052" cy="1482.266" rx="14.407" ry="23.184" style="fill:white;"/>
            </g>
            <g transform="matrix(-0.993078,-0.103093,-0.052123,1.668555,1704.844247,-852.184762)">
                <ellipse cx="823.052" cy="1482.266" rx="14.407" ry="23.184"/>
            </g>
            <g transform="matrix(0.985242,-0.102279,0.051047,1.634115,-121.415777,-801.005961)">
                <ellipse cx="823.052" cy="1482.266" rx="14.407" ry="23.184"/>
            </g>
            <g transform="matrix(1.140262,0,0,2.078664,-181.351604,-1583.069965)">
                <ellipse cx="1622.914" cy="1494.106" rx="27.075" ry="25.158" style="fill:white;"/>
            </g>
            <g transform="matrix(0.437888,0,0,0.963638,951.151738,67.790668)">
                <ellipse cx="1622.914" cy="1494.106" rx="27.075" ry="25.158"/>
            </g>
            <g transform="matrix(0.08577,0,0,0.18875,1531.233347,1228.76065)">
                <ellipse cx="1622.914" cy="1494.106" rx="27.075" ry="25.158" style="fill:white;"/>
            </g>
            <g transform="matrix(1.140262,0,0,2.078664,-172.993225,-1554.357817)">
                <path d="M822.428,1518.444C822.428,1518.444 825.207,1524.117 822.871,1531.317C821.815,1534.573 819.714,1538.141 815.837,1541.638" style="fill:none;stroke:black;stroke-width:4.17px;"/>
            </g>
            <g transform="matrix(1.035741,0,0,1.503337,-83.194674,-671.532933)">
                <path d="M819.821,1528.344C819.821,1528.344 843.58,1540.928 859.144,1530.041" style="fill:none;stroke:black;stroke-width:5.08px;"/>
            </g>
            <g transform="matrix(1.140262,0,0,2.078664,-172.993225,-1554.357817)">
                <path d="M1586.585,1520.496C1591.185,1516.407 1644.323,1512.981 1644.852,1520.096C1645.62,1530.434 1637.119,1543.696 1617.252,1544.63C1597.385,1545.563 1581.985,1524.585 1586.585,1520.496Z"/>
            </g>
            <g transform="matrix(0.382084,0,0,0.696528,1053.700028,558.9234)">
                <path d="M1549.878,1549.582C1549.686,1538.2 1660.468,1533.127 1680.455,1547.673C1680.455,1547.673 1668.547,1571.356 1618.052,1575.439C1577.066,1578.752 1549.951,1553.919 1549.878,1549.582Z" style="fill:white;"/>
            </g>
        </g>
    </g>
</svg>
