<?xml version="1.0" encoding="UTF-8" standalone="no"?><!DOCTYPE svg PUBLIC "-//W3C//DTD SVG 1.1//EN" "http://www.w3.org/Graphics/SVG/1.1/DTD/svg11.dtd"><svg width="100%" height="100%" viewBox="0 0 139 237" version="1.1" xmlns="http://www.w3.org/2000/svg" xmlns:xlink="http://www.w3.org/1999/xlink" xml:space="preserve" xmlns:serif="http://www.serif.com/" style="fill-rule:evenodd;clip-rule:evenodd;stroke-linejoin:round;stroke-miterlimit:2;"><rect id="wdd231-logo" x="0" y="0" width="138.033" height="236.515" style="fill:none;"/><path d="M94.498,121.4c0.878,-0.878 1.372,-2.07 1.372,-3.312c0,-1.242 -0.494,-2.434 -1.372,-3.312c-15.058,-15.058 -76.97,-76.97 -92.028,-92.028c-0.878,-0.878 -1.372,-2.07 -1.372,-3.312c-0,-1.242 0.494,-2.434 1.372,-3.312c3.89,-3.89 10.305,-10.305 14.195,-14.195c1.829,-1.829 4.795,-1.829 6.624,-0c17.179,17.179 95.34,95.34 95.34,95.34c0,0 11.632,11.632 17.507,17.507c1.829,1.829 1.829,4.795 0,6.624c-5.875,5.875 -17.507,17.507 -17.507,17.507c0,0 -78.161,78.161 -95.34,95.34c-1.829,1.829 -4.795,1.829 -6.624,-0c-3.89,-3.89 -10.305,-10.305 -14.195,-14.195c-0.878,-0.878 -1.372,-2.07 -1.372,-3.312c0,-1.242 0.494,-2.434 1.372,-3.312c15.058,-15.058 76.97,-76.97 92.028,-92.028Z" style="fill:url(#_Linear1);"/><path d="M19.978,97.269c0,0 78.161,-78.161 95.34,-95.34c1.829,-1.829 4.795,-1.829 6.624,0c3.89,3.89 10.305,10.305 14.195,14.195c0.878,0.878 1.372,2.07 1.372,3.312c-0,1.242 -0.494,2.434 -1.372,3.312c-15.058,15.058 -76.97,76.97 -92.028,92.028c-0.878,0.878 -1.372,2.07 -1.372,3.312c-0,1.242 0.494,2.434 1.372,3.312c15.058,15.058 76.97,76.97 92.028,92.028c0.878,0.878 1.372,2.07 1.372,3.312c0,1.242 -0.494,2.434 -1.372,3.312c-3.89,3.89 -10.305,10.305 -14.195,14.195c-1.829,1.829 -4.795,1.829 -6.624,0c-17.179,-17.179 -95.34,-95.34 -95.34,-95.34c0,0 -11.632,-11.632 -17.507,-17.507c-1.829,-1.829 -1.829,-4.795 0,-6.624c5.875,-5.875 17.507,-17.507 17.507,-17.507Z" style="fill:url(#_Linear2);"/><defs><linearGradient id="_Linear1" x1="0" y1="0" x2="1" y2="0" gradientUnits="userSpaceOnUse" gradientTransform="matrix(-174.307137,-169.541588,-29.544781,30.375238,130.167127,190.332392)"><stop offset="0" style="stop-color:#00ad5a;stop-opacity:1"/><stop offset="1" style="stop-color:#00de00;stop-opacity:1"/></linearGradient><linearGradient id="_Linear2" x1="0" y1="0" x2="1" y2="0" gradientUnits="userSpaceOnUse" gradientTransform="matrix(94.185679,93.915298,16.365937,-16.413054,31.053128,42.699821)"><stop offset="0" style="stop-color:#00ad5a;stop-opacity:1"/><stop offset="1" style="stop-color:#00de00;stop-opacity:1"/></linearGradient></defs></svg>