<?xml version="1.0" encoding="UTF-8" standalone="no"?><!DOCTYPE svg PUBLIC "-//W3C//DTD SVG 1.1//EN" "http://www.w3.org/Graphics/SVG/1.1/DTD/svg11.dtd"><svg width="100%" height="100%" viewBox="0 0 115 101" version="1.1" xmlns="http://www.w3.org/2000/svg" xmlns:xlink="http://www.w3.org/1999/xlink" xml:space="preserve" xmlns:serif="http://www.serif.com/" style="fill-rule:evenodd;clip-rule:evenodd;stroke-linejoin:round;stroke-miterlimit:2;"><rect id="logo-light" x="0" y="0" width="114.535" height="100.633" style="fill:none;"/><clipPath id="_clip1"><rect x="0" y="0" width="114.535" height="100.633"/></clipPath><g clip-path="url(#_clip1)"><g><path d="M57.163,82.268c3.977,-2.143 6.26,-5.968 6.26,-11.739c0,-15.84 -19.555,-18.613 -19.555,-27.253c0,-2.52 -0.79,-6.862 3.036,-6.862c3.958,0 3.3,4.342 3.3,6.862c0,0 -0.805,4.681 1.187,5.881c1.992,1.2 10.765,1.319 10.765,1.319l0,-8.064c0.264,-15.033 -10.378,-13.546 -15.3,-12.433c-10.449,2.363 -14.009,7.502 -14.544,13.549c-1.535,17.343 19.581,17.172 19.581,28.764c0,1.135 -0.449,2.176 -1.112,3.032l6.381,6.944Z" style="fill:#f5f2ea;"/><path d="M30.493,50.478c1.992,-1.344 -0.629,-5.451 0,-8.064c3.258,-13.538 -7.17,-13.085 -15.234,-13.085c-9.216,0 -15.388,7.629 -15.006,14.597c1.042,19.035 18.288,16.776 18.288,28.368c0,3.024 1.912,6.67 -3.003,6.856c-4.669,0.177 -3.333,-3.832 -3.333,-6.856c0,0 1.992,-7.38 0,-8.856c-1.992,-1.476 -8.806,0.395 -10.798,1.979c-1.992,1.584 -1.154,7.525 -1.154,7.525c0,8.856 7.416,11.448 15.048,11.448c10.008,0 12.904,-7.261 13.435,-14.112c1.241,-15.987 -16.531,-18.36 -16.531,-27c0,-2.52 -0.473,-6.333 2.673,-7.588c5.269,-2.102 5.147,5.444 5.147,5.444c0,0 -0.207,6.195 1.538,7.752c1.745,1.557 6.938,2.936 8.93,1.592Z" style="fill:#f5f2ea;fill-rule:nonzero;"/><g><path d="M8.258,97.549c4.944,-19.212 45.698,-32.165 59.157,-74.728c11.505,-36.384 36.583,-24.284 15.783,3.201c-8.645,11.423 -22.869,36.417 -22.869,36.417c0,0 -14.011,15.882 -22.547,21.949c-8.536,6.066 -32.191,23.524 -29.524,13.162Z" style="fill:#00de00;"/><g><path d="M28.317,84.388c-1.693,0.883 -2.595,2.64 -7.52,6.903c-4.637,4.014 -3.718,4.722 -3.718,4.722c0,0 0.076,1.22 5.245,-4.037c5.916,-6.018 7.627,-3.558 8.633,-5.981c1.189,-2.864 -1.481,-2.211 -2.639,-1.607Z"/><path d="M82.76,5.634c0,0 -1.534,1.966 -6.377,6.323c-2.166,1.948 -2.242,4.501 -2.242,4.501c0,0 -0.44,2.216 4.728,-3.041c5.916,-6.018 6.668,-4.332 7.673,-6.755c1.189,-2.864 -3.783,-1.027 -3.783,-1.027Z"/><ellipse cx="79.281" cy="24.945" rx="1.689" ry="2.146"/></g></g><path d="M50.782,75.324c-1.103,1.425 -2.801,2.342 -4.015,2.342c-2.232,0 -4.509,-1.246 -5.194,-5.779c-0.362,-2.393 4.018,-7.211 2.297,-8.451c-1.722,-1.24 -12.214,-1.498 -12.627,1.013c-0.438,2.665 0.675,8.491 0.675,8.491c0,8.856 7.484,11.448 15.116,11.448c4.022,0 7.459,-0.68 10.131,-2.12l-6.381,-6.944Z" style="fill:#f5f2ea;"/><path d="M71.514,83.118c3.342,1.023 13.647,0 13.647,0l4.216,-39.227l0.143,0l4.573,39.227c0,0 11.457,2.418 13.603,-1.677c3.626,-6.918 7.17,-47.968 6.903,-49.196c-0.159,-0.733 -9.224,-3.259 -10.503,0c-2.37,6.038 -3.715,36.226 -3.715,36.226l-0.143,0c0,0 -5.879,-34.459 -6.339,-35.972c-0.209,-0.687 -7.878,-4.116 -9.737,-0.253c-2.906,6.038 -3.787,30.188 -4.573,36.226c-0.006,0.047 -0.143,0 -0.143,0c0,0 -0.06,-30.188 -2.501,-36.226c-1.518,-3.754 -11.717,-4.026 -12.147,0c-0.905,8.479 -2.016,48.199 6.716,50.873Z" style="fill:#f5f2ea;fill-rule:nonzero;"/></g></g></svg>