<?xml version="1.0" encoding="UTF-8" standalone="no"?>
<!DOCTYPE svg PUBLIC "-//W3C//DTD SVG 1.1//EN" "http://www.w3.org/Graphics/SVG/1.1/DTD/svg11.dtd">
<svg width="100%" height="100%" viewBox="0 0 478 420" version="1.1" xmlns="http://www.w3.org/2000/svg" xmlns:xlink="http://www.w3.org/1999/xlink" xml:space="preserve" xmlns:serif="http://www.serif.com/" style="fill-rule:evenodd;clip-rule:evenodd;stroke-linejoin:round;stroke-miterlimit:2;">
    <g transform="matrix(1,0,0,1,-1331,-460.085792)">
        <g id="logo-accent" transform="matrix(1,0,0,1,-0.015186,-196.919578)">
            <rect x="1331.015" y="657.005" width="477.228" height="419.302" style="fill:none;"/>
            <clipPath id="_clip1">
                <rect x="1331.015" y="657.005" width="477.228" height="419.302"/>
            </clipPath>
            <g clip-path="url(#_clip1)">
                <g transform="matrix(1,0,0,1,1030.036645,-1243.039427)">
                    <g transform="matrix(1,0,0,1,11.286918,1894.90499)">
                        <path d="M527.561,347.369C544.131,338.441 553.646,322.502 553.646,298.457C553.646,232.457 472.169,220.902 472.169,184.902C472.169,174.402 468.875,156.308 484.819,156.308C501.312,156.308 498.569,174.402 498.569,184.902C498.569,184.902 495.216,204.405 503.516,209.405C511.816,214.405 548.369,214.902 548.369,214.902L548.369,181.302C549.468,118.666 505.128,124.86 484.619,129.498C441.081,139.343 426.248,160.757 424.018,185.953C417.62,258.214 505.605,257.502 505.605,305.802C505.605,310.532 503.735,314.867 500.972,318.436L527.561,347.369Z"/>
                    </g>
                    <g transform="matrix(1,0,0,1,18.553497,1894.912415)">
                        <path d="M409.169,214.902C417.469,209.302 406.548,192.191 409.169,181.302C422.744,124.894 379.294,126.781 345.694,126.781C307.294,126.781 281.58,158.57 283.169,187.602C287.509,266.912 359.369,257.502 359.369,305.802C359.369,318.402 367.335,333.594 346.856,334.37C327.401,335.108 332.969,318.402 332.969,305.802C332.969,305.802 341.269,275.052 332.969,268.902C324.669,262.752 296.278,270.547 287.978,277.147C279.678,283.747 283.169,308.502 283.169,308.502C283.169,345.402 314.069,356.202 345.869,356.202C387.569,356.202 399.634,325.947 401.849,297.402C407.019,230.79 332.969,220.902 332.969,184.902C332.969,174.402 330.999,158.514 344.107,153.285C366.063,144.526 365.553,175.969 365.553,175.969C365.553,175.969 364.692,201.781 371.961,208.269C379.23,214.758 400.869,220.502 409.169,214.902Z" style="fill-rule:nonzero;"/>
                    </g>
                    <g>
                        <g transform="matrix(1,0,0,1,127.242205,1731.993599)">
                            <path d="M207.831,573.953C228.433,493.903 398.24,439.932 454.319,262.587C502.257,110.986 606.748,161.404 520.08,275.923C484.06,323.519 424.793,427.661 424.793,427.661C424.793,427.661 366.414,493.838 330.849,519.113C295.284,544.389 196.719,617.132 207.831,573.953Z" style="fill:rgb(245,242,234);"/>
                        </g>
                        <g>
                            <g transform="matrix(1,0,0,1,-106.621339,2071.062965)">
                                <path d="M525.275,180.044C518.22,183.721 514.462,191.042 493.941,208.805C474.619,225.531 478.449,228.481 478.449,228.481C478.449,228.481 478.767,233.564 500.302,211.659C524.952,186.585 532.08,196.836 536.271,186.74C541.225,174.806 530.102,177.527 525.275,180.044Z" style="fill:rgb(0,222,0);"/>
                            </g>
                            <g transform="matrix(1,0,0,1,124.989409,1740.504589)">
                                <path d="M520.51,182.462C520.51,182.462 514.118,190.653 493.941,208.805C484.917,216.923 484.598,227.558 484.598,227.558C484.598,227.558 482.764,236.792 504.298,214.887C528.948,189.813 532.08,196.836 536.271,186.74C541.225,174.806 520.51,182.462 520.51,182.462Z" style="fill:rgb(0,222,0);"/>
                            </g>
                            <g transform="matrix(1,0,0,1,116.851613,1756.913758)">
                                <ellipse cx="514.152" cy="246.516" rx="7.036" ry="8.942" style="fill:rgb(0,222,0);"/>
                            </g>
                        </g>
                    </g>
                    <g transform="matrix(1,0,0,1,11.286918,1894.90499)">
                        <path d="M500.972,318.436C496.374,324.374 489.302,328.194 484.243,328.194C474.943,328.194 465.456,323.002 462.599,304.113C461.091,294.142 479.343,274.067 472.169,268.902C464.994,263.737 421.275,262.66 419.554,273.124C417.727,284.227 422.369,308.502 422.369,308.502C422.369,345.402 453.55,356.202 485.35,356.202C502.108,356.202 516.427,353.368 527.561,347.369L500.972,318.436Z"/>
                    </g>
                    <g transform="matrix(8.931392,0,0,8.931392,-1913.812097,131.270377)">
                        <path d="M281.306,236.754C282.865,237.232 287.673,236.754 287.673,236.754L289.639,218.454L289.706,218.454L291.839,236.754C291.839,236.754 297.184,237.883 298.186,235.972C299.877,232.744 301.531,213.594 301.406,213.021C301.332,212.679 297.103,211.501 296.506,213.021C295.4,215.838 294.773,229.921 294.773,229.921L294.706,229.921C294.706,229.921 291.963,213.846 291.749,213.139C291.651,212.819 288.073,211.219 287.206,213.021C285.85,215.838 285.439,227.104 285.073,229.921C285.07,229.943 285.006,229.921 285.006,229.921C285.006,229.921 284.978,215.838 283.839,213.021C283.131,211.27 278.373,211.143 278.173,213.021C277.75,216.977 277.232,235.507 281.306,236.754Z" style="fill-rule:nonzero;"/>
                    </g>
                </g>
            </g>
        </g>
    </g>
</svg>
