<?xml version="1.0" encoding="UTF-8" standalone="no"?>
<svg
   id="Layer_1"
   data-name="Layer 1"
   viewBox="0 0 487 160"
   version="1.1"
   sodipodi:docname="store-mp.svg"
   width="487"
   height="160"
   inkscape:version="1.1 (c68e22c387, 2021-05-23)"
   xmlns:inkscape="http://www.inkscape.org/namespaces/inkscape"
   xmlns:sodipodi="http://sodipodi.sourceforge.net/DTD/sodipodi-0.dtd"
   xmlns="http://www.w3.org/2000/svg"
   xmlns:svg="http://www.w3.org/2000/svg">
  <sodipodi:namedview
     id="namedview609"
     pagecolor="#ffffff"
     bordercolor="#666666"
     borderopacity="1.0"
     inkscape:pageshadow="2"
     inkscape:pageopacity="0.0"
     inkscape:pagecheckerboard="0"
     showgrid="false"
     width="487px"
     inkscape:zoom="2.437788"
     inkscape:cx="216.7949"
     inkscape:cy="58.044423"
     inkscape:window-width="1920"
     inkscape:window-height="1017"
     inkscape:window-x="-8"
     inkscape:window-y="-8"
     inkscape:window-maximized="1"
     inkscape:current-layer="Layer_1" />
  <defs
     id="defs512">
    <style
       id="style510">.cls-1{fill:#ff671d;}.cls-2{fill:#007853;}</style>
  </defs>
  <g
     id="g658"
     transform="translate(26.566697,21.860491)">
    <path
       class="cls-1"
       d="m 107.23,107.09 c -44.71,1.94 -82.3,-18.61 -84,-45.9 -1.7,-27.29 33.23,-51 77.94,-52.93 23.62,-1 45.25,4.24 60.66,13.45 C 144.72,9.61 118.76,2.46 90.11,3.71 40.89,5.84 2.45,31.94 4.29,62 c 1.84,30.06 43.25,52.71 92.5,50.57 28.63,-1.23 53.59,-10.59 69.13,-24.1 -14.19,10.49 -35.07,17.59 -58.69,18.61 z"
       id="path514" />
    <path
       class="cls-2"
       d="M 117.38,97.62 100.9,97.57 112.29,54.34 c 1.36,-5.2 1.95,-7.41 3.7,-13.77 -2.33,4.52 -3.59,6.93 -6.59,12.32 L 85.2,97.53 H 71.42 L 70.28,54.23 C 70.2,49.32 70.2,47.3 70.22,40.64 c -1.56,6.27 -2,8.19 -3.31,12.9 L 55.13,97.46 h -16 l 18.49,-68 25.63,0.06 0.75,37.85 c 0,4.14 0,5.11 -0.31,9.54 2,-4.43 2.52,-5.59 5,-10.4 l 19.94,-36.95 26.31,0.08 -17.62,68 z"
       id="path516" />
    <path
       class="cls-2"
       d="m 222.58,45.54 h -8.05 L 220,23.65 c 0.66,-2.63 0.95,-3.75 1.8,-7 -1.14,2.29 -1.75,3.51 -3.21,6.24 l -11.73,22.65 h -6.73 l -0.61,-21.89 c -0.05,-2.49 -0.05,-3.51 -0.05,-6.87 -0.75,3.17 -1,4.14 -1.6,6.53 l -5.69,22.23 h -7.82 l 8.94,-34.42 h 12.52 l 0.43,19.16 c 0,2.1 0,2.58 -0.14,4.83 1,-2.25 1.22,-2.83 2.44,-5.27 l 9.7,-18.72 h 12.85 z"
       id="path518" />
    <path
       class="cls-2"
       d="m 242.76,17.41 h -7.66 l 1.5,-6 h 7.67 z m -7,28.13 h -7.67 l 6.07,-24.38 h 7.72 z"
       id="path520" />
    <path
       class="cls-2"
       d="m 262.39,45.54 h -7.72 l 3.67,-14.77 A 19.09,19.09 0 0 0 259.1,27 2,2 0 0 0 257,24.82 a 4.41,4.41 0 0 0 -2.91,1.36 c -0.85,0.88 -1.13,1.57 -1.65,3.76 l -3.91,15.6 h -7.67 L 247,21.16 h 7.62 l -0.7,2.83 c 2.35,-1.9 4.8,-3.26 7.81,-3.26 3.58,0 5.22,2.24 5.22,5 a 19.35,19.35 0 0 1 -0.8,4.68 l -3.76,15.16 z"
       id="path522" />
    <path
       class="cls-2"
       d="M 289.59,45.54 H 282 l 0.7,-2.93 A 12.53,12.53 0 0 1 274.44,46 c -3.72,0 -5.84,-1.95 -5.84,-5.32 a 17.27,17.27 0 0 1 0.52,-3.56 l 4,-15.94 h 7.67 L 277.07,36 a 14.58,14.58 0 0 0 -0.61,3.51 c 0,1.81 1.36,2.29 2.54,2.29 a 5.22,5.22 0 0 0 4,-2 10.24,10.24 0 0 0 1.22,-3.32 l 3.86,-15.31 h 7.63 l -6.12,24.38 z"
       id="path524" />
    <path
       class="cls-2"
       d="m 305.26,36.18 a 13.25,13.25 0 0 0 -0.56,3.17 2,2 0 0 0 2.25,2 9.62,9.62 0 0 0 2.26,-0.4 l -1.08,4.25 a 19.61,19.61 0 0 1 -5,0.73 8.39,8.39 0 0 1 -3.3,-0.54 4.3,4.3 0 0 1 -3,-4.53 15.24,15.24 0 0 1 0.66,-3.95 l 3.1,-12.48 h -3.1 l 0.85,-3.32 h 3.1 l 1.18,-4.72 8,-1.46 -1.62,6.23 h 3.91 l -0.85,3.32 h -3.86 l -3,11.7 z"
       id="path526" />
    <path
       class="cls-2"
       d="m 329.16,30.62 a 11.66,11.66 0 0 0 0.47,-3 c 0,-2.05 -1.12,-3.41 -3.15,-3.41 -3.53,0 -4.79,3.56 -5.64,6.43 z m 6,7.21 a 9.86,9.86 0 0 1 -2.82,4.78 c -1.51,1.47 -4.57,3.52 -10.26,3.52 -6.07,0 -10.12,-2.3 -10.12,-8.24 a 26.5,26.5 0 0 1 2.26,-9.9 c 1.55,-3.46 4.52,-7.41 12.33,-7.41 4.61,0 10.12,1.36 10.12,8.19 a 19.9,19.9 0 0 1 -0.8,5.27 h -16 a 20,20 0 0 0 -0.71,4.48 c 0,2.63 1.46,3.9 3.53,3.9 3.67,0 4.56,-3.12 5,-4.59 z"
       id="path528" />
    <path
       class="cls-2"
       d="m 373.07,45.54 h -7.67 l 3.86,-15.41 a 12.83,12.83 0 0 0 0.52,-2.92 2.13,2.13 0 0 0 -2.31,-2.3 4.49,4.49 0 0 0 -3.15,1.47 c -0.89,0.93 -1.18,1.85 -1.79,4.15 l -3.71,15 h -7.68 L 355,30.33 a 15.05,15.05 0 0 0 0.61,-3.17 2.09,2.09 0 0 0 -2.26,-2.29 5,5 0 0 0 -3.15,1.36 c -1,1 -1.27,2 -1.89,4.3 l -3.72,15 h -7.67 L 343,21.16 h 7.63 l -0.71,2.93 c 3,-2.48 5.7,-3.36 7.95,-3.36 2.64,0 4.85,1.12 5.37,4 a 13,13 0 0 1 3.2,-2.4 11.54,11.54 0 0 1 5.6,-1.6 c 1.27,0 5.55,0.39 5.55,5.21 a 22.47,22.47 0 0 1 -0.85,5 l -3.67,14.62 z"
       id="path530" />
    <path
       class="cls-2"
       d="m 394,33.74 c -1.89,0.1 -4.57,0.44 -6.08,1.56 a 5,5 0 0 0 -1.88,4 2.36,2.36 0 0 0 2.5,2.58 4.25,4.25 0 0 0 3.24,-1.46 6.49,6.49 0 0 0 1.37,-3 L 394,33.81 Z m 6.11,11.8 h -6.49 c -1,0 -2,-0.15 -2,-1.81 a 7.85,7.85 0 0 1 0.09,-1.07 6.3,6.3 0 0 1 -2.35,2.05 10,10 0 0 1 -4.94,1.29 6.09,6.09 0 0 1 -4.62,-1.65 5.59,5.59 0 0 1 -1.32,-3.81 9.65,9.65 0 0 1 0.24,-2.23 8.22,8.22 0 0 1 5.6,-6.1 c 2.69,-1 7.57,-1.42 10.45,-1.61 l 0.23,-1 a 12.49,12.49 0 0 0 0.52,-3 2.26,2.26 0 0 0 -2.58,-2.39 3.61,3.61 0 0 0 -2.83,1.37 7.34,7.34 0 0 0 -1.27,2.93 h -7.48 a 8.92,8.92 0 0 1 4.37,-6.3 16.31,16.31 0 0 1 7.58,-1.7 15,15 0 0 1 6.59,1.32 5.26,5.26 0 0 1 3,5 17.1,17.1 0 0 1 -0.42,3.12 l -2.86,11.25 a 10.89,10.89 0 0 0 -0.38,2.39 1.27,1.27 0 0 0 1,1.41 l -0.14,0.54 z"
       id="path532" />
    <path
       class="cls-2"
       d="m 425.07,45.54 h -7.71 L 421,30.77 a 19,19 0 0 0 0.75,-3.76 2,2 0 0 0 -2.07,-2.19 4.45,4.45 0 0 0 -2.92,1.36 c -0.84,0.88 -1.13,1.57 -1.65,3.76 l -3.9,15.6 h -7.67 l 6.12,-24.38 h 7.62 L 416.6,24 c 2.36,-1.9 4.8,-3.26 7.81,-3.26 3.58,0 5.23,2.24 5.23,5 a 19.85,19.85 0 0 1 -0.8,4.68 l -3.77,15.16 z"
       id="path534" />
    <path
       class="cls-2"
       d="M 187.84,68.52 H 190 a 9.63,9.63 0 0 0 4.61,-0.77 c 2.5,-1.37 3.86,-5.07 3.86,-7.8 a 5,5 0 0 0 -0.42,-2.2 c -1,-2 -2.88,-2.1 -5.23,-2.1 H 191 Z m -4.28,17.07 h -8.66 l 8.61,-34.47 h 11.39 c 4.62,0.05 8,0.1 10.26,2.68 a 7.9,7.9 0 0 1 1.7,5.22 18.29,18.29 0 0 1 -1.7,7.41 c -3.15,6.48 -8.47,6.58 -13.5,6.63 h -5 l -3.11,12.53 z"
       id="path536" />
    <path
       class="cls-2"
       d="m 210.58,85.59 h -7.67 L 209,61.21 h 7.67 L 215.38,66 c 1.51,-2.34 3.39,-5.26 7,-5.26 a 3.92,3.92 0 0 1 1.88,0.43 l -1.65,6.2 a 5.47,5.47 0 0 0 -2.92,-0.93 c -4.32,0 -5.5,4.68 -6.11,7.17 l -3,11.94 z"
       id="path538" />
    <path
       class="cls-2"
       d="m 239.29,70.67 a 12.11,12.11 0 0 0 0.47,-3 c 0,-2.05 -1.13,-3.41 -3.15,-3.41 -3.53,0 -4.8,3.55 -5.65,6.43 z m 6,7.22 a 9.88,9.88 0 0 1 -2.82,4.77 c -1.51,1.47 -4.57,3.51 -10.26,3.51 -6.07,0 -10.12,-2.29 -10.12,-8.24 A 26.49,26.49 0 0 1 224.37,68 c 1.55,-3.46 4.52,-7.41 12.33,-7.41 4.61,0 10.12,1.37 10.12,8.19 a 19.76,19.76 0 0 1 -0.8,5.26 H 230 a 20.32,20.32 0 0 0 -0.71,4.49 c 0,2.63 1.46,3.9 3.53,3.9 3.67,0 4.57,-3.12 5,-4.58 z"
       id="path540" />
    <path
       class="cls-2"
       d="m 255,74.86 c -1.83,-0.92 -4.75,-2.53 -4.75,-6.43 a 7.31,7.31 0 0 1 3.91,-6.43 13,13 0 0 1 6.54,-1.42 c 1.69,0 9.41,0 9.41,5.9 a 6.8,6.8 0 0 1 -0.14,1.31 l -6.44,-0.19 c 0,-0.29 0,-0.63 0,-0.93 0,-2.19 -1.83,-2.63 -3.06,-2.63 -1.78,0 -3.05,1 -3.05,2.44 0,1.75 1.5,2.49 3.57,3.56 l 2.31,1 c 2,1.07 4.7,2.44 4.7,6.39 a 8.54,8.54 0 0 1 -3.2,6.53 c -1.6,1.27 -4,2.19 -7.81,2.19 -5.08,0 -10.35,-1.22 -10.35,-6.33 a 10.92,10.92 0 0 1 0.18,-1.66 l 6.92,0.19 c 0,0.25 0,0.59 0,0.88 a 3.23,3.23 0 0 0 3.52,3.41 c 2.31,0 3.44,-1.51 3.44,-3 0,-2 -1.64,-2.83 -3.53,-3.7 z"
       id="path542" />
    <path
       class="cls-2"
       d="m 277.5,74.86 c -1.83,-0.92 -4.75,-2.53 -4.75,-6.43 a 7.3,7.3 0 0 1 4,-6.43 13,13 0 0 1 6.53,-1.42 c 1.7,0 9.41,0 9.41,5.9 a 6.09,6.09 0 0 1 -0.14,1.31 l -6.44,-0.19 c 0,-0.29 0,-0.63 0,-0.93 0,-2.19 -1.83,-2.63 -3.06,-2.63 -1.78,0 -3.05,1 -3.05,2.44 0,1.75 1.5,2.49 3.57,3.56 l 2.31,1 c 2,1.07 4.7,2.44 4.7,6.39 A 8.56,8.56 0 0 1 287.39,84 c -1.61,1.27 -4.05,2.19 -7.82,2.19 -5.08,0 -10.35,-1.22 -10.35,-6.33 a 9.83,9.83 0 0 1 0.19,-1.66 l 6.91,0.19 c 0,0.25 0,0.59 0,0.88 a 3.23,3.23 0 0 0 3.53,3.41 3.1,3.1 0 0 0 3.43,-3 c 0,-2 -1.65,-2.83 -3.53,-3.7 l -2.21,-1.08 z"
       id="path544" />
    <path
       class="cls-2"
       d="m 297.28,82.38 h 0.4 a 1,1 0 0 0 0.32,-0.08 0.57,0.57 0 0 0 0.24,-0.19 0.75,0.75 0 0 0 0.08,-0.37 0.53,0.53 0 0 0 -0.08,-0.32 0.7,0.7 0 0 0 -0.2,-0.18 0.77,0.77 0 0 0 -0.27,-0.08 1.73,1.73 0 0 0 -0.32,0 h -0.81 v 1.26 z m 0.27,-1.76 a 1.57,1.57 0 0 1 1,0.29 1,1 0 0 1 0.34,0.85 1,1 0 0 1 -0.3,0.78 1.34,1.34 0 0 1 -0.73,0.3 l 1.14,1.74 h -0.66 l -1.08,-1.7 h -0.65 v 1.7 H 296 v -4 z m -2.78,3.12 a 2.82,2.82 0 0 0 0.58,0.92 2.77,2.77 0 0 0 0.89,0.61 2.72,2.72 0 0 0 1.11,0.22 2.66,2.66 0 0 0 1.09,-0.22 2.88,2.88 0 0 0 0.89,-0.61 3,3 0 0 0 0.58,-0.92 3.09,3.09 0 0 0 0.21,-1.15 3,3 0 0 0 -0.21,-1.13 3,3 0 0 0 -0.58,-0.91 3,3 0 0 0 -0.89,-0.6 2.66,2.66 0 0 0 -1.09,-0.22 2.72,2.72 0 0 0 -1.11,0.22 2.91,2.91 0 0 0 -0.89,0.6 2.78,2.78 0 0 0 -0.58,0.91 2.85,2.85 0 0 0 -0.22,1.13 2.91,2.91 0 0 0 0.22,1.15 z m -0.56,-2.48 a 3.31,3.31 0 0 1 1.79,-1.77 3.19,3.19 0 0 1 1.31,-0.26 3.43,3.43 0 0 1 2.38,1 3.33,3.33 0 0 1 0.73,1.07 3.11,3.11 0 0 1 0.28,1.33 3.23,3.23 0 0 1 -0.28,1.35 3.33,3.33 0 0 1 -0.73,1.07 3.28,3.28 0 0 1 -1.07,0.71 3.39,3.39 0 0 1 -1.31,0.25 3.35,3.35 0 0 1 -3.41,-3.38 3.26,3.26 0 0 1 0.27,-1.33 z"
       id="path546" />
    <path
       class="cls-2"
       d="m 131.11,17.14 a 51.32,51.32 0 0 0 -19.92,5.77 48.08,48.08 0 0 1 12.25,-2.68 c 19.57,-1.67 36.79,8.21 38.45,22.05 1.66,13.84 -12.89,26.43 -32.45,28.09 a 47.4,47.4 0 0 1 -18.91,-2.13 51,51 0 0 0 27.29,4.94 c 21.88,-1.87 38.12,-15.92 36.27,-31.39 -1.85,-15.47 -21.1,-26.52 -43,-24.65 z"
       id="path548" />
    <path
       class="cls-1"
       d="m 171.19,96.41 h 2.66 l 0.05,6 1.93,-6 h 2.29 l 0.08,6 1.88,-6 h 2.67 l -3.56,9.72 h -2.71 l -0.12,-5.63 -1.84,5.63 h -2.71 z"
       id="path550" />
    <path
       class="cls-1"
       d="m 183.83,96.41 h 6.87 l -0.36,2.27 h -4.09 l -0.22,1.4 h 3.48 l -0.37,2.26 h -3.46 l -0.22,1.53 h 4.26 l -0.34,2.26 h -7 z"
       id="path552" />
    <path
       class="cls-1"
       d="m 196.27,96.41 h 3.63 a 6.57,6.57 0 0 1 1.11,0.09 4.54,4.54 0 0 1 0.92,0.26 2.71,2.71 0 0 1 1.33,1.13 3.73,3.73 0 0 1 0.49,2 v 0.65 l -0.06,0.51 a 7.82,7.82 0 0 1 -1,3 4,4 0 0 1 -1.79,1.62 5.82,5.82 0 0 1 -2.46,0.51 h -3.61 z m 2.41,2.27 -0.79,5.19 h 0.62 c 1.31,0 2.1,-0.91 2.37,-2.71 a 8.53,8.53 0 0 0 0.07,-0.93 1.5,1.5 0 0 0 -0.41,-1.19 2.08,2.08 0 0 0 -1.38,-0.36 z"
       id="path554" />
    <path
       class="cls-1"
       d="m 205.61,96.41 h 6.86 l -0.36,2.27 H 208 l -0.22,1.4 h 3.48 l -0.36,2.26 h -3.47 l -0.22,1.53 h 4.26 l -0.34,2.26 h -7 z"
       id="path556" />
    <path
       class="cls-1"
       d="m 218.05,99.23 c 0,-0.55 -0.34,-0.82 -1,-0.82 -0.53,0 -0.84,0.17 -0.91,0.52 a 0.62,0.62 0 0 0 0.19,0.54 2,2 0 0 0 0.71,0.36 l 0.9,0.26 a 4.31,4.31 0 0 1 1.81,0.89 2,2 0 0 1 0.63,1.52 v 0.58 a 3.45,3.45 0 0 1 -1.54,2.53 5.27,5.27 0 0 1 -2.89,0.79 3.37,3.37 0 0 1 -2.46,-0.9 2.76,2.76 0 0 1 -0.79,-2 v -0.34 h 2.65 a 0.9,0.9 0 0 0 0.36,0.81 1.45,1.45 0 0 0 0.78,0.23 c 0.67,0 1.06,-0.22 1.18,-0.66 v -0.17 a 0.5,0.5 0 0 0 -0.28,-0.45 8.29,8.29 0 0 0 -1.2,-0.48 5.87,5.87 0 0 1 -2,-0.91 2,2 0 0 1 -0.71,-1.67 v -0.38 -0.32 a 3.39,3.39 0 0 1 0.67,-1.5 3.57,3.57 0 0 1 1.41,-1.07 5.16,5.16 0 0 1 2,-0.38 3.54,3.54 0 0 1 2.3,0.73 2.84,2.84 0 0 1 0.83,2.33 z"
       id="path558" />
    <path
       class="cls-1"
       d="m 222.77,96.41 h 2.75 l -1.52,9.72 h -2.75 z"
       id="path560" />
    <path
       class="cls-1"
       d="m 230.43,102.9 0.31,-2.11 h 3.77 l -0.82,5.37 h -1.76 v -1 a 3.54,3.54 0 0 1 -2.7,1.19 3.17,3.17 0 0 1 -2.52,-1.06 4.13,4.13 0 0 1 -0.9,-2.76 V 102 l 0.08,-0.52 a 7,7 0 0 1 1.7,-3.76 4.49,4.49 0 0 1 1.56,-1.13 4.7,4.7 0 0 1 1.94,-0.39 4.61,4.61 0 0 1 1,0.09 3.23,3.23 0 0 1 0.85,0.33 2.76,2.76 0 0 1 1.19,1.2 4,4 0 0 1 0.42,1.91 v 0.06 H 232 c -0.09,-0.81 -0.5,-1.22 -1.24,-1.22 -1.21,0 -1.92,1.23 -2.11,3.7 0,1.19 0.48,1.79 1.43,1.79 a 1.71,1.71 0 0 0 0.93,-0.32 1.62,1.62 0 0 0 0.66,-0.81 z"
       id="path562" />
    <path
       class="cls-1"
       d="m 237.16,96.41 h 2.61 l 2.18,5.3 0.23,-2.16 0.48,-3.14 h 2.63 l -1.48,9.72 h -2.58 l -2.2,-5.3 -0.22,2.21 -0.48,3.09 h -2.65 z"
       id="path564" />
    <path
       class="cls-1"
       d="m 246.44,103.34 h 2.46 l -0.35,2.3 a 3.8,3.8 0 0 1 -1,2.12 2.64,2.64 0 0 1 -2,0.75 l 0.19,-1.18 a 1.34,1.34 0 0 0 0.86,-0.38 1.33,1.33 0 0 0 0.46,-0.81 H 246 Z"
       id="path566" />
    <path
       class="cls-1"
       d="m 255.59,96.41 h 4 a 4.25,4.25 0 0 1 1.75,0.31 2.15,2.15 0 0 1 1.05,0.86 2.75,2.75 0 0 1 0.35,1.45 4.93,4.93 0 0 1 -0.07,0.81 3.59,3.59 0 0 1 -4,3.26 h -1.41 l -0.46,3 h -2.75 z m 2.41,2.27 -0.35,2.15 h 1.19 a 1.19,1.19 0 0 0 0.88,-0.37 1.28,1.28 0 0 0 0.37,-0.93 c 0,-0.57 -0.43,-0.85 -1.28,-0.85 z"
       id="path568" />
    <path
       class="cls-1"
       d="m 264.21,96.41 h 4.07 a 4.35,4.35 0 0 1 2.53,0.54 1.81,1.81 0 0 1 0.7,1.55 4,4 0 0 1 -0.46,2 2.17,2.17 0 0 1 -1.36,1.1 2.23,2.23 0 0 1 0.88,0.59 1.63,1.63 0 0 1 0.24,1 8,8 0 0 1 -0.07,0.95 l -0.11,0.76 -0.1,0.66 c 0,0.2 0.1,0.3 0.24,0.3 v 0.28 h -2.78 v -0.35 a 8.39,8.39 0 0 1 0.07,-1 l 0.09,-1.09 q 0,-0.66 -0.36,-0.81 a 3.84,3.84 0 0 0 -1.32,-0.16 H 266 l -0.52,3.4 h -2.76 z m 2.41,2.27 -0.3,1.92 h 1.17 c 0.84,0 1.29,-0.31 1.36,-0.94 a 0.89,0.89 0 0 0 -0.06,-0.49 0.76,0.76 0 0 0 -0.35,-0.36 1,1 0 0 0 -0.5,-0.13 z"
       id="path570" />
    <path
       class="cls-1"
       d="m 273.6,96.41 h 2.76 l -1.48,9.72 h -2.76 z"
       id="path572" />
    <path
       class="cls-1"
       d="m 278.16,96.41 h 2.6 l 2.18,5.3 0.24,-2.16 0.48,-3.14 h 2.62 l -1.48,9.72 h -2.58 l -2.19,-5.3 -0.23,2.17 -0.47,3.09 h -2.66 z"
       id="path574" />
    <path
       class="cls-1"
       d="m 287.57,96.41 h 7.7 L 294.89,99 h -2.49 l -1.07,7.16 h -2.78 l 1.1,-7.16 h -2.47 z"
       id="path576" />
    <path
       class="cls-1"
       d="m 301.43,100.66 a 1.84,1.84 0 0 1 -0.2,-0.31 c -0.05,-0.12 -0.11,-0.24 -0.18,-0.38 a 2.54,2.54 0 0 1 -0.13,-0.77 2.71,2.71 0 0 1 0.36,-1.33 2.66,2.66 0 0 1 1.12,-1.05 3.75,3.75 0 0 1 1.81,-0.41 2.46,2.46 0 0 1 1.79,0.59 2.13,2.13 0 0 1 0.65,1.59 2.93,2.93 0 0 1 -0.45,1.55 3.75,3.75 0 0 1 -1.32,1.27 l 0.6,0.88 a 6.65,6.65 0 0 0 0.66,-0.83 h 2.23 a 13.76,13.76 0 0 1 -1.77,2.35 l 1.58,2.29 h -2.95 l -0.52,-0.82 a 6.85,6.85 0 0 1 -0.66,0.43 q -0.37,0.2 -0.78,0.36 a 4.74,4.74 0 0 1 -1.6,0.3 2.47,2.47 0 0 1 -2.15,-1 2.59,2.59 0 0 1 -0.29,-0.55 2.75,2.75 0 0 1 -0.09,-0.73 3.8,3.8 0 0 1 0.58,-2 4,4 0 0 1 1.71,-1.43 z m 1.22,1.6 a 2,2 0 0 0 -1.09,1.08 v 0.28 a 0.65,0.65 0 0 0 0.16,0.46 1.08,1.08 0 0 0 0.5,0.26 3.36,3.36 0 0 0 1.39,-0.61 l -0.43,-0.69 z m 1,-2.29 a 3,3 0 0 0 0.76,-0.51 1,1 0 0 0 0.29,-0.75 c 0,-0.41 -0.22,-0.61 -0.67,-0.61 a 1,1 0 0 0 -0.64,0.2 0.5,0.5 0 0 0 -0.22,0.21 0.54,0.54 0 0 0 -0.07,0.29 V 99 a 1.3,1.3 0 0 0 0.51,1 z"
       id="path578" />
    <path
       class="cls-1"
       d="m 315,96.41 h 4 a 4.25,4.25 0 0 1 1.75,0.31 2.11,2.11 0 0 1 1.05,0.86 2.75,2.75 0 0 1 0.35,1.45 4.93,4.93 0 0 1 -0.07,0.81 3.59,3.59 0 0 1 -4,3.26 h -1.41 l -0.46,3 h -2.75 z m 2.42,2.27 -0.35,2.15 h 1.19 a 1.19,1.19 0 0 0 0.88,-0.37 1.28,1.28 0 0 0 0.37,-0.93 c 0,-0.57 -0.43,-0.85 -1.28,-0.85 z"
       id="path580" />
    <path
       class="cls-1"
       d="m 323.58,96.41 h 4.07 a 4.35,4.35 0 0 1 2.53,0.54 1.81,1.81 0 0 1 0.7,1.55 4,4 0 0 1 -0.46,2 2.17,2.17 0 0 1 -1.36,1.1 2.23,2.23 0 0 1 0.88,0.59 1.63,1.63 0 0 1 0.24,1 8,8 0 0 1 -0.07,0.95 l -0.11,0.76 -0.1,0.66 c 0,0.2 0.1,0.3 0.24,0.3 l -0.05,0.28 h -2.78 v -0.35 a 8.39,8.39 0 0 1 0.07,-1 l 0.09,-1.09 q 0,-0.66 -0.36,-0.81 a 3.84,3.84 0 0 0 -1.32,-0.16 h -0.41 l -0.52,3.4 h -2.76 z m 2.42,2.27 -0.3,1.92 h 1.17 c 0.84,0 1.29,-0.31 1.36,-0.94 a 0.89,0.89 0 0 0 -0.06,-0.49 0.76,0.76 0 0 0 -0.35,-0.36 1,1 0 0 0 -0.5,-0.13 z"
       id="path582" />
    <path
       class="cls-1"
       d="m 337,96.17 a 3.36,3.36 0 0 1 2.77,1.13 4.65,4.65 0 0 1 0.69,1.29 6.43,6.43 0 0 1 0.17,0.76 6,6 0 0 1 0.06,0.89 v 0.51 l -0.05,0.41 a 6.74,6.74 0 0 1 -0.86,2.57 5.3,5.3 0 0 1 -1.82,1.94 4.62,4.62 0 0 1 -2.54,0.73 3.34,3.34 0 0 1 -2.79,-1.15 4.45,4.45 0 0 1 -0.92,-2.85 v -0.37 -0.45 -0.39 a 7.48,7.48 0 0 1 0.87,-2.5 5.25,5.25 0 0 1 1.77,-1.8 4.67,4.67 0 0 1 2.65,-0.72 z m -0.39,2.37 c -1.19,0 -1.9,1.21 -2.12,3.62 0,1.24 0.43,1.87 1.3,1.87 a 1.73,1.73 0 0 0 1.58,-1.14 5.43,5.43 0 0 0 0.56,-2.47 2.46,2.46 0 0 0 -0.32,-1.37 1.08,1.08 0 0 0 -1.01,-0.51 z"
       id="path584" />
    <path
       class="cls-1"
       d="m 345.94,96.41 0.55,6.07 2.42,-6.07 h 3.33 l -1.49,9.72 h -2.48 l 0.51,-3.23 0.21,-1.24 0.42,-1.77 -2.51,6.24 H 345 l -0.6,-6.24 -0.12,1.37 c -0.1,1.16 -0.33,2.78 -0.68,4.87 h -2.46 l 1.49,-9.72 z"
       id="path586" />
    <path
       class="cls-1"
       d="m 358,96.17 a 3.36,3.36 0 0 1 2.77,1.13 4.4,4.4 0 0 1 0.69,1.29 6.43,6.43 0 0 1 0.17,0.76 6,6 0 0 1 0.06,0.89 v 0.51 l -0.05,0.41 a 6.74,6.74 0 0 1 -0.86,2.57 5.3,5.3 0 0 1 -1.82,1.94 4.59,4.59 0 0 1 -2.54,0.73 3.34,3.34 0 0 1 -2.79,-1.15 4.45,4.45 0 0 1 -0.92,-2.85 v -0.37 -0.45 -0.39 a 7.48,7.48 0 0 1 0.87,-2.5 5.25,5.25 0 0 1 1.77,-1.8 4.67,4.67 0 0 1 2.65,-0.72 z m -0.39,2.37 c -1.19,0 -1.9,1.21 -2.12,3.62 0,1.24 0.43,1.87 1.3,1.87 a 1.73,1.73 0 0 0 1.58,-1.14 5.43,5.43 0 0 0 0.56,-2.47 2.46,2.46 0 0 0 -0.32,-1.37 1.08,1.08 0 0 0 -1.03,-0.51 z"
       id="path588" />
    <path
       class="cls-1"
       d="M 363.25,96.41 H 371 L 370.57,99 h -2.49 l -1.08,7.13 h -2.78 l 1.1,-7.16 h -2.47 z"
       id="path590" />
    <path
       class="cls-1"
       d="m 372.34,96.41 h 6.87 l -0.36,2.27 h -4.09 l -0.22,1.4 H 378 l -0.36,2.26 h -3.47 l -0.22,1.53 h 4.26 l -0.34,2.26 h -7 z"
       id="path592" />
    <path
       class="cls-1"
       d="m 379.66,103.34 h 2.49 l -0.44,2.79 h -2.46 z"
       id="path594" />
    <path
       class="cls-1"
       d="m 383.67,103.34 h 2.48 l -0.44,2.79 h -2.45 z"
       id="path596" />
    <path
       class="cls-1"
       d="m 387.67,103.34 h 2.49 l -0.45,2.79 h -2.45 z"
       id="path598" />
    <path
       class="cls-2"
       d="m 392.06,96.41 h 3.11 l 0.93,3.29 2,-3.29 h 3 l -4,6.13 -0.55,3.59 h -2.77 l 0.53,-3.53 z"
       id="path600" />
    <path
       class="cls-2"
       d="m 406.17,96.17 a 3.35,3.35 0 0 1 2.76,1.13 4.18,4.18 0 0 1 0.69,1.29 4.94,4.94 0 0 1 0.18,0.76 7.94,7.94 0 0 1 0.05,0.89 v 0.51 0.41 a 7.1,7.1 0 0 1 -0.86,2.57 5.41,5.41 0 0 1 -1.83,1.94 4.58,4.58 0 0 1 -2.53,0.73 3.35,3.35 0 0 1 -2.8,-1.15 4.44,4.44 0 0 1 -0.91,-2.85 v -0.37 -0.45 -0.39 a 7.49,7.49 0 0 1 0.88,-2.5 5.31,5.31 0 0 1 1.76,-1.8 4.68,4.68 0 0 1 2.61,-0.72 z m -0.39,2.37 c -1.2,0 -1.91,1.21 -2.13,3.62 0,1.24 0.44,1.87 1.3,1.87 a 1.73,1.73 0 0 0 1.59,-1.14 5.56,5.56 0 0 0 0.56,-2.47 2.55,2.55 0 0 0 -0.32,-1.37 1.11,1.11 0 0 0 -1,-0.51 z"
       id="path602" />
    <path
       class="cls-2"
       d="m 411.9,96.41 h 2.77 l -0.9,5.85 a 1,1 0 0 1 0,0.31 v 0.35 a 0.94,0.94 0 0 0 1.06,1.08 1.32,1.32 0 0 0 1.06,-0.43 2.66,2.66 0 0 0 0.52,-1.31 l 0.88,-5.85 H 420 l -0.85,5.53 a 5.55,5.55 0 0 1 -1.54,3.39 4.62,4.62 0 0 1 -3.18,1.07 4,4 0 0 1 -2.6,-0.74 3,3 0 0 1 -0.89,-2.43 v -0.34 a 3,3 0 0 1 0,-0.39 c 0,-0.14 0,-0.24 0,-0.3 0,-0.06 0,-0.14 0.05,-0.26 z"
       id="path604" />
    <path
       class="cls-2"
       d="M 420.56,103.53 H 423 l -0.38,2.6 h -2.42 z m 1.07,-7.12 h 2.48 l -0.36,2.4 -1.18,3.76 h -1.33 v -3.76 z"
       id="path606" />
  </g>
</svg>
